<svg width="1637" height="1540" viewBox="0 0 1637 1540" fill="none" xmlns="http://www.w3.org/2000/svg">
<g clip-path="url(#clip0_3421_3589)">
<mask id="mask0_3421_3589" style="mask-type:alpha" maskUnits="userSpaceOnUse" x="-1199" y="-404" width="2958" height="1936">
<path d="M355.761 258.924C452.292 301.216 495.034 411.042 451.22 504.223L259.655 911.674C217.863 1000.58 258.632 1105.36 350.736 1145.7C442.832 1186.05 551.376 1146.68 593.169 1057.79L784.733 650.337C828.547 557.153 942.321 515.893 1038.86 558.184C1135.39 600.476 1178.13 710.305 1134.32 803.489L947.313 1201.24C903 1295.5 946.232 1406.59 1043.88 1449.36C1141.52 1492.14 1256.6 1450.41 1300.92 1356.15L1492.48 948.703C1533.77 860.871 1641.01 821.984 1732 861.845M-1020.48 -344C-923.949 -301.708 -881.208 -191.883 -925.02 -98.6968L-1116.59 308.754C-1158.38 397.654 -1117.61 502.431 -1025.51 542.775C-933.413 583.127 -824.87 543.765 -783.072 454.861L-591.507 47.4125C-547.696 -45.7724 -433.921 -87.0314 -337.388 -44.7397C-240.848 -2.44882 -198.107 107.378 -241.92 200.564L-428.928 598.316C-473.243 692.572 -430.011 803.661 -332.363 846.436C-234.719 889.218 -119.636 847.483 -75.3233 753.227L116.241 345.778C157.535 257.948 264.77 219.061 355.761 258.922" stroke="#383838" stroke-width="130.231"/>
</mask>
<g mask="url(#mask0_3421_3589)">
<path d="M1719.72 -440.562H-1215.65V1567.64H1719.72V-440.562Z" fill="white"/>
</g>
</g>
<defs>
<clipPath id="clip0_3421_3589">
<rect width="1673" height="1540" fill="white" transform="translate(-36)"/>
</clipPath>
</defs>
</svg>
