<svg width="61" height="62" viewBox="0 0 61 62" fill="none" xmlns="http://www.w3.org/2000/svg">
<mask id="mask0_3926_3562" style="mask-type:alpha" maskUnits="userSpaceOnUse" x="0" y="0" width="61" height="62">
<circle cx="30.5" cy="30.5244" r="30.5" fill="#1A1A1A"/>
</mask>
<g mask="url(#mask0_3926_3562)">
<rect x="20" y="37.0244" width="9" height="15" fill="#EEEEEE"/>
<rect x="33" y="37.0244" width="9" height="15" fill="#EEEEEE"/>
<path d="M18.9511 81.1076V77.9205H12.5543V81.1076H18.9511ZM15.7415 87.078H12.5543V87.1004V87.1229L15.7415 87.078ZM7.45931 59.8748C9.23246 59.8523 10.6689 61.2888 10.6914 63.0395C10.7138 64.8126 9.27735 66.2491 7.52664 66.2716L7.45931 59.8748ZM12.5543 81.1076V87.078H18.9511V81.1076H12.5543ZM12.5543 87.1453C12.5992 88.9409 11.1178 90.512 9.05289 90.4896L9.00802 96.8864C14.4846 96.9313 19.0633 92.5994 18.9511 87.0106L12.5543 87.1453ZM9.05289 90.4896C6.94308 90.4671 3.75591 88.7838 3.73347 86.9209L-2.66333 87.0331C-2.5511 92.5096 3.57635 96.8415 9.00802 96.8864L9.05289 90.4896ZM3.71101 86.9209L3.39679 70.0647L-3 70.177L-2.68578 87.0331L3.71101 86.9209ZM-3 70.177C-2.88778 64.5209 1.84809 59.9197 7.45931 59.8748L7.50421 66.2716C5.21483 66.294 3.44168 67.9998 3.39679 70.0423L-3 70.177Z" fill="#24F2CD"/>
<path d="M47.9943 46.2284C47.9943 23.2897 12.7559 23.2897 12.7559 46.2284V80.0753C12.7783 81.4669 13.9679 82.6116 15.3819 82.6116C16.2573 82.6116 16.9979 82.2076 17.4468 81.5791C17.7386 81.1751 17.9182 80.6589 17.8957 80.1202L17.7835 76.7759C17.7611 75.9006 18.21 75.1374 18.8833 74.711C19.2873 74.4417 19.7587 74.307 20.2749 74.307C21.6889 74.307 22.8561 75.4517 22.8785 76.8208L22.9907 80.3222C23.0132 81.6465 24.1354 82.7014 25.4821 82.7238C26.5819 82.7238 27.5022 82.028 27.7715 81.0404C27.8388 80.816 27.8613 80.5915 27.8613 80.3671L27.7491 76.8657C27.7491 76.3944 27.8613 75.9679 28.0857 75.5863C28.0857 75.5863 28.0857 75.5639 28.1082 75.5639C28.5346 74.8681 29.3426 74.3968 30.2629 74.3968C31.5871 74.3968 32.6869 75.4741 32.7094 76.7759L32.8216 80.2773C32.844 81.6689 34.0336 82.8136 35.4477 82.8136C36.8617 82.836 38.0064 81.7138 37.9839 80.2997L37.8717 76.9555C37.8493 75.5863 38.9715 74.4641 40.3855 74.4865C41.3282 74.4865 42.1587 74.9803 42.6076 75.721C42.832 76.0801 42.9667 76.529 42.9891 76.9779L43.1014 80.4793C43.1014 80.7038 43.1463 80.9282 43.2136 81.1302C43.5278 82.1178 44.4705 82.8585 45.5927 82.8585C46.9394 82.8585 48.0168 81.8036 47.9943 80.5018V46.2284ZM40.8569 46.5426C40.8569 48.7871 39.0388 50.6052 36.7943 50.6052C35.6721 50.6052 34.6621 50.1563 33.9214 49.4156C33.1807 48.6749 32.7318 47.6649 32.7318 46.5426V43.6248C32.7318 41.3803 34.5499 39.5623 36.7943 39.5623C37.9166 39.5623 38.9266 40.0112 39.6673 40.7519C40.408 41.4925 40.8569 42.5026 40.8569 43.6248V46.5426ZM27.9511 46.5426C27.9511 48.7871 26.133 50.6052 23.8885 50.6052C22.7663 50.6052 21.7563 50.1563 21.0156 49.4156C20.2749 48.6749 19.826 47.6649 19.826 46.5426V43.6248C19.826 41.3803 21.644 39.5623 23.8885 39.5623C26.133 39.5623 27.9511 41.3803 27.9511 43.6248V46.5426Z" stroke="#24F2CD" stroke-width="0.224449"/>
<path d="M13.2051 46.5424V79.6935C13.2275 81.0626 14.3722 82.1624 15.7862 82.1849C16.4371 82.1849 17.0207 81.9604 17.4472 81.5789C17.9634 81.13 18.2776 80.4791 18.2552 79.7384L18.143 76.4614C18.1205 75.7656 18.4123 75.1372 18.8836 74.6883C19.3325 74.2843 19.9161 74.015 20.5895 74.0374C21.981 74.0374 23.1033 75.1596 23.1257 76.5063L23.2379 79.9404C23.2604 81.2197 24.3602 82.2747 25.662 82.2971C26.5822 82.2971 27.3903 81.8033 27.7718 81.0402C27.9289 80.726 28.0187 80.3669 28.0187 79.9853L27.9065 76.5512C27.9065 76.1921 27.9738 75.8779 28.0861 75.5636C28.0861 75.5636 28.086 75.5412 28.1085 75.5412C28.4901 74.6883 29.343 74.1047 30.353 74.1272C31.6548 74.1272 32.7321 75.1821 32.7546 76.439L32.8668 79.8731C32.8893 81.2422 34.0339 82.3644 35.448 82.3644C36.8396 82.3644 37.9618 81.2871 37.9394 79.9179L37.8271 76.641C37.8047 75.2943 38.9045 74.2169 40.2736 74.2169C41.3061 74.2169 42.2039 74.8454 42.6079 75.7208C42.7426 76.0126 42.8099 76.3268 42.8323 76.6634L42.9446 80.0975C42.9446 80.4791 43.0568 80.8158 43.2139 81.13C43.6179 81.8931 44.4259 82.4318 45.3686 82.4318C46.6929 82.4318 47.7253 81.3993 47.7029 80.12V46.5424C47.7253 24.0751 13.2051 24.0751 13.2051 46.5424ZM23.9113 50.6049C22.789 50.6049 21.779 50.156 21.0384 49.4153C20.2977 48.6747 19.8488 47.6646 19.8488 46.5424V43.6246C19.8488 41.3801 21.6668 39.562 23.9113 39.562C26.1558 39.562 27.9738 41.3801 27.9738 43.6246V46.5424C27.9514 48.7869 26.1333 50.6049 23.9113 50.6049ZM40.8572 46.5424C40.8572 48.7869 39.0392 50.6049 36.7947 50.6049C35.6724 50.6049 34.6624 50.156 33.9217 49.4153C33.181 48.6747 32.7321 47.6646 32.7321 46.5424V43.6246C32.7321 41.3801 34.5502 39.562 36.7947 39.562C37.9169 39.562 38.9269 40.0109 39.6676 40.7516C40.4083 41.4923 40.8572 42.5023 40.8572 43.6246V46.5424Z" fill="#56A0E8" stroke="#24F2CD" stroke-width="0.915505"/>
<path d="M13.2051 46.5424V79.6935C13.2275 81.0626 14.3722 82.1624 15.7862 82.1849C16.4371 82.1849 17.0207 81.9604 17.4472 81.5789C17.9634 81.13 18.2776 80.4791 18.2552 79.7384L18.143 76.4614C18.1205 75.7656 18.4123 75.1372 18.8836 74.6883C19.3325 74.2843 19.9161 74.015 20.5895 74.0374C21.981 74.0374 23.1033 75.1596 23.1257 76.5063L23.2379 79.9404C23.2604 81.2197 24.3602 82.2747 25.662 82.2971C26.5822 82.2971 27.3903 81.8033 27.7718 81.0402C27.9289 80.726 28.0187 80.3669 28.0187 79.9853L27.9065 76.5512C27.9065 76.1921 27.9738 75.8779 28.0861 75.5636C28.0861 75.5636 28.086 75.5412 28.1085 75.5412C28.4901 74.6883 29.343 74.1047 30.353 74.1272C31.6548 74.1272 32.7321 75.1821 32.7546 76.439L32.8668 79.8731C32.8893 81.2422 34.0339 82.3644 35.448 82.3644C36.8396 82.3644 37.9618 81.2871 37.9394 79.9179L37.8271 76.641C37.8047 75.2943 38.9045 74.2169 40.2736 74.2169C41.3061 74.2169 42.2039 74.8454 42.6079 75.7208C42.7426 76.0126 42.8099 76.3268 42.8323 76.6634L42.9446 80.0975C42.9446 80.4791 43.0568 80.8158 43.2139 81.13C43.6179 81.8931 44.4259 82.4318 45.3686 82.4318C46.6929 82.4318 47.7253 81.3993 47.7029 80.12V46.5424C47.7253 24.0751 13.2051 24.0751 13.2051 46.5424ZM23.9113 50.6049C22.789 50.6049 21.779 50.156 21.0384 49.4153C20.2977 48.6747 19.8488 47.6646 19.8488 46.5424V43.6246C19.8488 41.3801 21.6668 39.562 23.9113 39.562C26.1558 39.562 27.9738 41.3801 27.9738 43.6246V46.5424C27.9514 48.7869 26.1333 50.6049 23.9113 50.6049ZM40.8572 46.5424C40.8572 48.7869 39.0392 50.6049 36.7947 50.6049C35.6724 50.6049 34.6624 50.156 33.9217 49.4153C33.181 48.6747 32.7321 47.6646 32.7321 46.5424V43.6246C32.7321 41.3801 34.5502 39.562 36.7947 39.562C37.9169 39.562 38.9269 40.0109 39.6676 40.7516C40.4083 41.4923 40.8572 42.5023 40.8572 43.6246V46.5424Z" fill="#56A0E8" stroke="#24F2CD" stroke-width="1.34669"/>
<path d="M25.9765 41.6496C25.9765 42.2332 25.7521 42.7494 25.3705 43.1086C24.9889 43.4901 24.4727 43.7146 23.8892 43.7146C23.3056 43.7146 22.7894 43.4901 22.4302 43.1086C22.0487 42.727 21.8242 42.2108 21.8242 41.6496C21.8242 41.0885 22.0487 40.5498 22.4302 40.1907C22.8118 39.8092 23.328 39.5847 23.8892 39.5847C25.0563 39.5847 25.9765 40.505 25.9765 41.6496Z" fill="#56A0E8" stroke="#24F2CD" stroke-width="1.34669" stroke-miterlimit="10"/>
<path d="M25.9765 41.6496C25.9765 42.2332 25.7521 42.7494 25.3705 43.1086C24.9889 43.4901 24.4727 43.7146 23.8892 43.7146C23.3056 43.7146 22.7894 43.4901 22.4302 43.1086C22.0487 42.727 21.8242 42.2108 21.8242 41.6496C21.8242 41.0885 22.0487 40.5498 22.4302 40.1907C22.8118 39.8092 23.328 39.5847 23.8892 39.5847C25.0563 39.5847 25.9765 40.505 25.9765 41.6496Z" fill="#56A0E8"/>
<path d="M38.8379 41.6496C38.8379 42.2332 38.6134 42.7494 38.2318 43.1086C37.8503 43.4901 37.334 43.7146 36.7505 43.7146C36.1669 43.7146 35.6507 43.4901 35.2916 43.1086C34.91 42.727 34.6855 42.2108 34.6855 41.6496C34.6855 41.0885 34.91 40.5498 35.2916 40.1907C35.6731 39.8092 36.1894 39.5847 36.7505 39.5847C37.9176 39.5847 38.8379 40.505 38.8379 41.6496Z" fill="#56A0E8" stroke="#24F2CD" stroke-width="1.34669" stroke-miterlimit="10"/>
<path d="M38.8379 41.6496C38.8379 42.2332 38.6134 42.7494 38.2318 43.1086C37.8503 43.4901 37.334 43.7146 36.7505 43.7146C36.1669 43.7146 35.6507 43.4901 35.2916 43.1086C34.91 42.727 34.6855 42.2108 34.6855 41.6496C34.6855 41.0885 34.91 40.5498 35.2916 40.1907C35.6731 39.8092 36.1894 39.5847 36.7505 39.5847C37.9176 39.5847 38.8379 40.505 38.8379 41.6496Z" fill="#56A0E8"/>
</g>
<path d="M19.491 22.6832L19.1877 22.1723C18.5172 21.0547 18.5491 20.2725 19.3154 19.0751L20.1137 17.8458C20.8161 16.7122 21.2312 16.0257 20.6405 15.0519C19.97 13.9662 19.1398 13.5671 17.1761 14.7485C14.9889 16.0736 14.7813 17.1273 15.7233 18.676L15.8989 18.9633L13.9032 20.1767L13.7276 19.8733C12.3706 17.6382 12.7697 14.8922 16.1384 12.8487C19.2516 10.9648 21.4228 11.7471 22.6202 13.7108C23.7058 15.4989 22.9874 17.1273 22.1412 18.4045L21.359 19.554C20.9279 20.1767 20.9598 20.5119 21.2472 20.9909L21.5346 21.4698L19.491 22.6832ZM21.8698 26.882L20.1775 24.0881L22.4925 22.6832L24.1848 25.4771L21.8698 26.882Z" fill="#56A0E8" stroke="#24F2CD" stroke-width="0.957908"/>
<path d="M28.1794 20.7039L28.2096 20.1105C28.2699 18.8086 28.7297 18.1748 30.0307 17.602L31.3761 17.0202C32.5886 16.4652 33.3144 16.1233 33.3616 14.9853C33.4043 13.71 32.9339 12.918 30.6446 12.8146C28.0895 12.7071 27.3333 13.4697 27.2603 15.2808L27.2475 15.6174L24.9138 15.5229L24.9355 15.1731C25.0429 12.5605 26.8956 10.4947 30.8322 10.658C34.4678 10.8128 35.8428 12.6663 35.7527 14.9645C35.6668 17.0546 34.1669 18.013 32.7552 18.6081L31.4673 19.1322C30.7636 19.4121 30.6046 19.709 30.5788 20.2669L30.5529 20.8249L28.1794 20.7039ZM27.8357 25.5175L27.9732 22.2539L30.6788 22.3656L30.5413 25.6292L27.8357 25.5175Z" fill="#56A0E8" stroke="#24F2CD" stroke-width="0.957908"/>
<path d="M38.1836 21.266L38.4824 20.7524C39.1328 19.623 39.8318 19.2704 41.2508 19.3576L42.7131 19.4572C44.0452 19.5197 44.8469 19.5485 45.4105 18.5587C46.033 17.4448 45.9779 16.5252 43.9906 15.3841C41.769 14.1175 40.7473 14.4486 39.8524 16.0249L39.6867 16.3181L37.6559 15.1645L37.8355 14.8635C39.1284 12.5907 41.7219 11.6039 45.1458 13.5533C48.3061 15.3572 48.6786 17.6348 47.5452 19.6361C46.5108 21.4544 44.7386 21.6187 43.211 21.5006L41.8262 21.3761C41.0725 21.3023 40.7951 21.4933 40.5164 21.9773L40.2377 22.4614L38.1836 21.266ZM35.6718 25.3866L37.2899 22.5491L39.6434 23.8885L38.0253 26.726L35.6718 25.3866Z" fill="#56A0E8" stroke="#24F2CD" stroke-width="0.957908"/>
</svg>
