<svg width="154" height="294" viewBox="0 0 154 294" fill="none" xmlns="http://www.w3.org/2000/svg">
<g filter="url(#filter0_f_2815_5837)">
<g filter="url(#filter1_f_2815_5837)">
<path d="M192.878 209.685C188.071 213.729 187.476 220.728 191.55 225.318L202.058 236.835C205.944 241.214 205.377 247.892 200.79 251.749C196.204 255.606 189.335 255.184 185.449 250.804L174.941 239.288C170.867 234.697 163.667 234.254 158.86 238.297C154.053 242.341 153.458 249.34 157.532 253.93L167.616 264.969C171.736 269.613 171.135 276.692 166.272 280.782C161.41 284.872 154.127 284.424 150.006 279.78L52.0615 165.1C-14.2977 87.4035 105.104 -14.5647 171.462 63.1308L270.594 179.19C274.48 183.569 273.913 190.246 269.327 194.104C264.74 197.962 257.872 197.539 253.985 193.159L243.477 181.642C239.403 177.052 232.203 176.609 227.396 180.652C222.589 184.696 221.994 191.695 226.068 196.285L236.152 207.324C240.273 211.967 239.671 219.047 234.808 223.137C229.946 227.227 222.663 226.778 218.542 222.135L208.035 210.618C204.195 206.292 197.409 205.874 192.878 209.685Z" stroke="#08FBFF" stroke-width="4.73034"/>
</g>
</g>
<path d="M192.484 208.525C187.775 212.485 187.193 219.341 191.183 223.837L201.476 235.118C205.282 239.408 204.727 245.948 200.234 249.727C195.742 253.505 189.014 253.091 185.207 248.801L174.915 237.521C170.924 233.024 163.872 232.59 159.163 236.551C154.454 240.511 153.872 247.367 157.862 251.863L167.739 262.676C171.776 267.224 171.187 274.159 166.424 278.165C161.661 282.171 154.527 281.732 150.491 277.184L54.5531 164.853C-10.4462 88.7488 106.508 -11.1299 171.507 64.9735L268.607 178.654C272.414 182.944 271.859 189.484 267.366 193.263C262.874 197.042 256.146 196.627 252.339 192.338L242.046 181.057C238.056 176.56 231.004 176.126 226.295 180.087C221.586 184.047 221.003 190.903 224.994 195.399L234.871 206.212C238.907 210.76 238.318 217.695 233.555 221.701C228.792 225.707 221.659 225.268 217.623 220.72L207.33 209.439C203.569 205.201 196.922 204.792 192.484 208.525Z" fill="#1A1A1A" stroke="#08FBFF" stroke-width="4.07895"/>
<g filter="url(#filter2_i_2815_5837)">
<path d="M192.484 208.525C187.775 212.485 187.193 219.341 191.183 223.837L201.476 235.118C205.282 239.408 204.727 245.948 200.234 249.727C195.742 253.505 189.014 253.091 185.207 248.801L174.915 237.521C170.924 233.024 163.872 232.59 159.163 236.551C154.454 240.511 153.872 247.367 157.862 251.863L167.739 262.676C171.776 267.224 171.187 274.159 166.424 278.165C161.661 282.171 154.527 281.732 150.491 277.184L54.5531 164.853C-10.4462 88.7488 106.508 -11.1299 171.507 64.9735L268.607 178.654C272.414 182.944 271.859 189.484 267.366 193.263C262.874 197.042 256.146 196.627 252.339 192.338L242.046 181.057C238.056 176.56 231.004 176.126 226.295 180.087C221.586 184.047 221.003 190.903 224.994 195.399L234.871 206.212C238.907 210.76 238.318 217.695 233.555 221.701C228.792 225.707 221.659 225.268 217.623 220.72L207.33 209.439C203.569 205.201 196.922 204.792 192.484 208.525Z" fill="#1A1A1A"/>
</g>
<path d="M192.484 208.525C187.775 212.485 187.193 219.341 191.183 223.837L201.476 235.118C205.282 239.408 204.727 245.948 200.234 249.727C195.742 253.505 189.014 253.091 185.207 248.801L174.915 237.521C170.924 233.024 163.872 232.59 159.163 236.551C154.454 240.511 153.872 247.367 157.862 251.863L167.739 262.676C171.776 267.224 171.187 274.159 166.424 278.165C161.661 282.171 154.527 281.732 150.491 277.184L54.5531 164.853C-10.4462 88.7488 106.508 -11.1299 171.507 64.9735L268.607 178.654C272.414 182.944 271.859 189.484 267.366 193.263C262.874 197.042 256.146 196.627 252.339 192.338L242.046 181.057C238.056 176.56 231.004 176.126 226.295 180.087C221.586 184.047 221.003 190.903 224.994 195.399L234.871 206.212C238.907 210.76 238.318 217.695 233.555 221.701C228.792 225.707 221.659 225.268 217.623 220.72L207.33 209.439C203.569 205.201 196.922 204.792 192.484 208.525Z" stroke="#08FBFF" stroke-width="4.07895"/>
<rect x="56.856" y="122.061" width="36.1406" height="49.1141" rx="18.0703" transform="rotate(-40.5 56.856 122.061)" fill="#F8F8F8"/>
<path d="M112.28 98.4883C105.799 90.8995 106.696 79.4933 114.285 73.0119C121.874 66.5304 133.28 67.4281 139.762 75.0169L148.187 84.8821C154.669 92.4709 153.771 103.877 146.182 110.359C138.593 116.84 127.187 115.942 120.706 108.353L112.28 98.4883Z" fill="#F8F8F8"/>
<rect x="66" y="125.35" width="18.5336" height="18.5336" rx="9.26681" transform="rotate(-40.5 66 125.35)" fill="#1A1A1A"/>
<rect x="109.689" y="88.0366" width="18.5336" height="18.5336" rx="9.26681" transform="rotate(-40.5 109.689 88.0366)" fill="#1A1A1A"/>
<defs>
<filter id="filter0_f_2815_5837" x="-7.54956" y="-7.42725" width="299.478" height="309.301" filterUnits="userSpaceOnUse" color-interpolation-filters="sRGB">
<feFlood flood-opacity="0" result="BackgroundImageFix"/>
<feBlend mode="normal" in="SourceGraphic" in2="BackgroundImageFix" result="shape"/>
<feGaussianBlur stdDeviation="4" result="effect1_foregroundBlur_2815_5837"/>
</filter>
<filter id="filter1_f_2815_5837" x="26.1686" y="28.9132" width="253.451" height="261.109" filterUnits="userSpaceOnUse" color-interpolation-filters="sRGB">
<feFlood flood-opacity="0" result="BackgroundImageFix"/>
<feBlend mode="normal" in="SourceGraphic" in2="BackgroundImageFix" result="shape"/>
<feGaussianBlur stdDeviation="2.03947" result="effect1_foregroundBlur_2815_5837"/>
</filter>
<filter id="filter2_i_2815_5837" x="33.4634" y="35.73" width="239.712" height="251.213" filterUnits="userSpaceOnUse" color-interpolation-filters="sRGB">
<feFlood flood-opacity="0" result="BackgroundImageFix"/>
<feBlend mode="normal" in="SourceGraphic" in2="BackgroundImageFix" result="shape"/>
<feColorMatrix in="SourceAlpha" type="matrix" values="0 0 0 0 0 0 0 0 0 0 0 0 0 0 0 0 0 0 127 0" result="hardAlpha"/>
<feOffset dy="4"/>
<feGaussianBlur stdDeviation="6"/>
<feComposite in2="hardAlpha" operator="arithmetic" k2="-1" k3="1"/>
<feColorMatrix type="matrix" values="0 0 0 0 0.0313726 0 0 0 0 0.984314 0 0 0 0 1 0 0 0 1 0"/>
<feBlend mode="normal" in2="shape" result="effect1_innerShadow_2815_5837"/>
</filter>
</defs>
</svg>
